        <svg width="99" height="33" viewBox="0 0 99 33" fill="none" xmlns="http://www.w3.org/2000/svg">
            <path d="M2.624 25.32C1.74933 25.32 0.874667 25.224 0 25.032L1.024 21.192C1.728 21.4267 2.41067 21.544 3.072 21.544C4.37333 21.544 5.024 20.4667 5.024 18.312L4.576 3.56L9.12 2.76L8.672 17.192C8.672 19.5173 8.10667 21.4587 6.976 23.016C5.84533 24.552 4.39467 25.32 2.624 25.32ZM16.9773 25C15.8253 25 14.8866 24.6267 14.1613 23.88C13.4573 23.112 13.1053 22.1093 13.1053 20.872L13.2973 17.192L12.9453 9.512L17.2333 8.712L16.8173 18.44C16.8173 19.3573 16.9773 20.0293 17.2973 20.456C17.6386 20.8827 18.1719 21.096 18.8973 21.096C19.6226 21.096 20.6253 20.7333 21.9053 20.008V18.088L21.5533 9.672L25.8733 8.872L25.4893 16.872L25.5213 19.496C25.5213 20.8613 25.8733 22.2373 26.5773 23.624L23.2493 25.096C22.5453 23.7093 22.1186 22.6 21.9693 21.768C20.0493 23.9227 18.3853 25 16.9773 25ZM34.2818 22.024C35.3911 22.024 35.9458 21.5333 35.9458 20.552C35.9458 20.2107 35.7004 19.8907 35.2098 19.592C34.7404 19.2933 34.1538 18.9947 33.4498 18.696C32.7671 18.3973 32.0738 18.0667 31.3698 17.704C30.6871 17.32 30.1004 16.7973 29.6098 16.136C29.1404 15.4747 28.9058 14.7173 28.9058 13.864C28.9058 12.4347 29.5351 11.1867 30.7938 10.12C32.0524 9.05333 33.5031 8.52 35.1458 8.52C35.9138 8.52 36.6604 8.616 37.3858 8.808C38.1324 8.97867 38.8471 9.256 39.5298 9.64L37.3858 13.544C37.2364 13.416 37.0444 13.256 36.8098 13.064C36.5751 12.872 36.1271 12.6267 35.4658 12.328C34.8258 12.008 34.2498 11.848 33.7378 11.848C33.2471 11.848 32.8631 11.9653 32.5858 12.2C32.3298 12.4133 32.2018 12.7227 32.2018 13.128C32.2018 13.512 32.5644 13.9067 33.2898 14.312C34.0364 14.696 34.8471 15.0587 35.7218 15.4C36.5964 15.72 37.3964 16.264 38.1218 17.032C38.8684 17.7787 39.2418 18.6747 39.2418 19.72C39.2418 21.2133 38.6231 22.5253 37.3858 23.656C36.1698 24.7867 34.7618 25.352 33.1618 25.352C32.1378 25.352 31.1778 25.128 30.2818 24.68C29.4071 24.232 28.7778 23.784 28.3938 23.336L27.8178 22.664L30.3458 19.72C30.4738 19.8907 30.6551 20.104 30.8898 20.36C31.1244 20.616 31.5831 20.9573 32.2658 21.384C32.9698 21.8107 33.6418 22.024 34.2818 22.024ZM43.2915 9.512V6.024L47.6115 5.192L47.1955 9.512H51.0675L50.7155 12.136H47.0675L46.9075 18.824C46.9075 19.8267 47.0035 20.4987 47.1955 20.84C47.3875 21.16 47.7395 21.32 48.2515 21.32C48.7635 21.32 49.4462 21.2027 50.2995 20.968L50.4915 23.24C49.0835 24.4133 47.8462 25 46.7795 25C45.7128 25 44.8382 24.616 44.1555 23.848C43.4728 23.0587 43.1315 22.0347 43.1315 20.776L43.3235 17.192L43.2915 12.136H41.0835L41.4355 9.512H43.2915Z" fill="#0C8342"/>
            <path d="M61.8985 8.84C63.3278 8.84 64.4905 9.45867 65.3865 10.696C66.2825 11.9333 66.7305 13.5227 66.7305 15.464C66.7305 18.2587 65.9945 20.552 64.5225 22.344C63.0718 24.1147 61.1838 25 58.8585 25C57.7918 25 55.9998 24.8293 53.4825 24.488L53.8025 17.224L53.4185 1.032L57.8025 0.231998L57.3865 8.488V11.944C57.6212 11.6027 57.9092 11.24 58.2505 10.856C58.5918 10.472 59.1252 10.0453 59.8505 9.576C60.5758 9.08533 61.2585 8.84 61.8985 8.84ZM60.6505 13C59.6692 13 58.5812 13.2987 57.3865 13.896V16.68L57.5785 21.384C58.4745 21.4907 59.3172 21.544 60.1065 21.544C62.1545 21.544 63.1785 20.1253 63.1785 17.288C63.1785 14.4293 62.3358 13 60.6505 13ZM73.2273 25C72.0753 25 71.1366 24.6267 70.4113 23.88C69.7073 23.112 69.3553 22.1093 69.3553 20.872L69.5473 17.192L69.1953 9.512L73.4833 8.712L73.0673 18.44C73.0673 19.3573 73.2273 20.0293 73.5473 20.456C73.8886 20.8827 74.4219 21.096 75.1473 21.096C75.8726 21.096 76.8753 20.7333 78.1553 20.008V18.088L77.8033 9.672L82.1233 8.872L81.7393 16.872L81.7713 19.496C81.7713 20.8613 82.1233 22.2373 82.8273 23.624L79.4993 25.096C78.7953 23.7093 78.3686 22.6 78.2193 21.768C76.2993 23.9227 74.6353 25 73.2273 25ZM86.1478 31.176L89.4438 23.784L87.0758 17.32L83.8438 9.544L88.0998 8.744L90.1478 15.56L91.2038 18.792H91.6198L92.3878 16.456L94.6918 8.712L98.6278 9.192L92.9638 24.072L90.2758 32.04L86.1478 31.176Z" fill="#02CFAC"/>
        </svg>